<?xml version="1.0" encoding="UTF-8" standalone="no"?>
<!DOCTYPE svg PUBLIC "-//W3C//DTD SVG 1.1//EN" "http://www.w3.org/Graphics/SVG/1.1/DTD/svg11.dtd">
<svg width="100%" height="100%" viewBox="0 0 100 100" version="1.1" xmlns="http://www.w3.org/2000/svg" xmlns:xlink="http://www.w3.org/1999/xlink" xml:space="preserve" xmlns:serif="http://www.serif.com/" style="fill-rule:evenodd;clip-rule:evenodd;stroke-linejoin:round;stroke-miterlimit:1.41421;">
    <g transform="matrix(-0.978261,0,0,1,98.9783,-12.5)">
        <g transform="matrix(1,0,0,1,0.511125,15.4828)">
            <path d="M71.5,12.8C71,12.5 70.5,12.4 70,12.4C68.9,12.4 67.9,13 67.4,13.9C66.6,15.3 67.1,17.2 68.5,18C69,18.3 69.5,18.4 70,18.4C71.1,18.4 72.1,17.8 72.6,16.9C73.4,15.4 72.9,13.6 71.5,12.8Z" style="fill:white;fill-rule:nonzero;"/>
        </g>
        <g transform="matrix(1,0,0,1,0.511125,15.4828)">
            <path d="M84.6,33C85.1,33 85.6,32.9 86.1,32.6C86.8,32.2 87.3,31.6 87.5,30.8C87.7,30 87.6,29.2 87.2,28.5C86.7,27.6 85.7,27 84.6,27C84.1,27 83.6,27.1 83.1,27.4C81.7,28.2 81.2,30.1 82,31.5C82.6,32.4 83.6,33 84.6,33Z" style="fill:white;fill-rule:nonzero;"/>
        </g>
        <g transform="matrix(1,0,0,1,0.511125,15.4828)">
            <circle cx="50" cy="90" r="3" style="fill:white;"/>
        </g>
        <g transform="matrix(1,0,0,1,0.511125,15.4828)">
            <circle cx="90" cy="50" r="3" style="fill:white;"/>
        </g>
        <g transform="matrix(1,0,0,1,0.511125,15.4828)">
            <path d="M86.1,67.4C85.6,67.1 85.1,67 84.6,67C83.5,67 82.5,67.6 82,68.5C81.2,69.9 81.7,71.8 83.1,72.6C83.6,72.9 84.1,73 84.6,73C85.7,73 86.7,72.4 87.2,71.5C87.6,70.8 87.7,70 87.5,69.2C87.3,68.4 86.8,67.8 86.1,67.4Z" style="fill:white;fill-rule:nonzero;"/>
        </g>
        <g transform="matrix(1,0,0,1,0.511125,15.4828)">
            <path d="M70,81.6C69.5,81.6 69,81.7 68.5,82C67.1,82.8 66.6,84.7 67.4,86.1C67.9,87 68.9,87.6 70,87.6C70.5,87.6 71,87.5 71.5,87.2C72.9,86.4 73.4,84.5 72.6,83.1C72.1,82.2 71.1,81.6 70,81.6Z" style="fill:white;fill-rule:nonzero;"/>
        </g>
    </g>
    <g transform="matrix(1,0,0,1,0,-12.5)">
        <g transform="matrix(1,0,0,1,-0.500014,15.4828)">
            <path d="M71.5,12.8C71,12.5 70.5,12.4 70,12.4C68.9,12.4 67.9,13 67.4,13.9C66.6,15.3 67.1,17.2 68.5,18C69,18.3 69.5,18.4 70,18.4C71.1,18.4 72.1,17.8 72.6,16.9C73.4,15.4 72.9,13.6 71.5,12.8Z" style="fill:white;fill-rule:nonzero;"/>
        </g>
        <g transform="matrix(1,0,0,1,-0.500014,15.4828)">
            <path d="M84.6,33C85.1,33 85.6,32.9 86.1,32.6C86.8,32.2 87.3,31.6 87.5,30.8C87.7,30 87.6,29.2 87.2,28.5C86.7,27.6 85.7,27 84.6,27C84.1,27 83.6,27.1 83.1,27.4C81.7,28.2 81.2,30.1 82,31.5C82.6,32.4 83.6,33 84.6,33Z" style="fill:white;fill-rule:nonzero;"/>
        </g>
        <g transform="matrix(1,0,0,1,-0.500014,15.4828)">
            <circle cx="50" cy="90" r="3" style="fill:white;"/>
        </g>
        <g transform="matrix(1,0,0,1,-0.500014,-65.1172)">
            <circle cx="50" cy="90" r="3" style="fill:white;"/>
        </g>
        <g transform="matrix(1,0,0,1,-0.500014,15.4828)">
            <circle cx="90" cy="50" r="3" style="fill:white;"/>
        </g>
        <g transform="matrix(1,0,0,1,-0.500014,15.4828)">
            <path d="M86.1,67.4C85.6,67.1 85.1,67 84.6,67C83.5,67 82.5,67.6 82,68.5C81.2,69.9 81.7,71.8 83.1,72.6C83.6,72.9 84.1,73 84.6,73C85.7,73 86.7,72.4 87.2,71.5C87.6,70.8 87.7,70 87.5,69.2C87.3,68.4 86.8,67.8 86.1,67.4Z" style="fill:white;fill-rule:nonzero;"/>
        </g>
        <g transform="matrix(1,0,0,1,-0.500014,15.4828)">
            <path d="M70,81.6C69.5,81.6 69,81.7 68.5,82C67.1,82.8 66.6,84.7 67.4,86.1C67.9,87 68.9,87.6 70,87.6C70.5,87.6 71,87.5 71.5,87.2C72.9,86.4 73.4,84.5 72.6,83.1C72.1,82.2 71.1,81.6 70,81.6Z" style="fill:white;fill-rule:nonzero;"/>
        </g>
    </g>
</svg>
